<svg xmlns="http://www.w3.org/2000/svg" viewBox="0 0 1600 473.9"><defs><style>.cls-1{fill:#fff;}.cls-2{fill:#6d6e71;}.cls-3{fill:#fcd21d;}.cls-4{fill:#ed3148;}</style></defs><title>enterfries-logo</title><g id="Layer_2" data-name="Layer 2"><rect class="cls-1" x="-43.86" y="-38.2" width="1697.92" height="547.47"/></g><g id="Layer_5" data-name="Layer 5"><path class="cls-2" d="M531.16,299.18Q529.49,313,517.58,323t-32.41,10q-23.12,0-37.41-13.82t-14.3-40q0-24.78,13.34-41T483.74,222q21.92,0,34.08,13.58t12.39,32.88A69.3,69.3,0,0,1,528.78,282H455.39q1.43,33.84,31.22,33.84,12.39,0,18.71-6a29.34,29.34,0,0,0,8.46-14.3ZM508.53,268a31.64,31.64,0,0,0-5.12-20.14q-6.08-9.65-20.14-9.65-13.11,0-19.66,8.7a42.38,42.38,0,0,0-8,21.09Z"/><path class="cls-2" d="M674.14,330.64H618.86v-16.2H636v-46q0-16.2-6.2-23t-16.44-6.79q-13.35,0-21.21,8.82A31.9,31.9,0,0,0,583.83,268v46.47H601v16.2H545.7v-16.2h17.16V240.56H545V224.12h38.84v18.11Q595,222,620,222q15.49,0,26.21,9.53T657,261.29v53.14h17.16Z"/><path class="cls-2" d="M766.6,300.61Q762.07,333,730.85,333q-16.44,0-25.62-8.94t-9.17-24.9v-59.1H679.62v-16h16.44v-33.6h20.73v33.6h40.75v16H716.79v56q0,19.07,16.44,19.06a18.94,18.94,0,0,0,10.48-3.46q5.24-3.45,7.39-16.08Z"/><path class="cls-2" d="M872.4,299.18Q870.73,313,858.82,323t-32.41,10Q803.29,333,789,319.2t-14.3-40q0-24.78,13.34-41T825,222q21.92,0,34.08,13.58t12.39,32.88A69.3,69.3,0,0,1,870,282H796.62q1.43,33.84,31.22,33.84,12.39,0,18.71-6a29.34,29.34,0,0,0,8.46-14.3ZM849.76,268a31.64,31.64,0,0,0-5.12-20.14q-6.08-9.65-20.14-9.65-13.11,0-19.66,8.7a42.38,42.38,0,0,0-8,21.09Z"/><path class="cls-2" d="M949.61,222.45q11.2,0,19.06,5.72L973,258l-16.44,1.91-4.05-18.35a21.77,21.77,0,0,0-8.34-1.67q-8.1,0-13.58,6.79t-5.48,17.75v50h22.88v16.2h-61v-16.2h17.16V240.56H886.22V224.12h37.41v19.54a36.19,36.19,0,0,1,9.65-15.13A23.08,23.08,0,0,1,949.61,222.45Z"/><path class="cls-2" d="M1043.73,164.31a59.4,59.4,0,0,1,14.18,1.67,32.87,32.87,0,0,1,12.75,6.43l4.29,26-16.68,2.14-4.53-17.87a35.37,35.37,0,0,0-11.2-1.67q-16.92,0-16.92,21.92v21.21H1053v16h-27.4v74.35H1048v16.2H987.5v-16.2h17.4V240.09H990.12v-16h14.77V205.29q0-18.11,11-29.55T1043.73,164.31Z"/><path class="cls-2" d="M1128.8,222.45q11.2,0,19.06,5.72l4.29,29.79-16.44,1.91-4.05-18.35a21.77,21.77,0,0,0-8.34-1.67q-8.1,0-13.58,6.79t-5.48,17.75v50h22.88v16.2h-61v-16.2h17.16V240.56h-17.87V224.12h37.41v19.54a36.18,36.18,0,0,1,9.65-15.13A23.08,23.08,0,0,1,1128.8,222.45Z"/><path class="cls-2" d="M1223.88,330.64h-55.52v-16.2h17.4V240.56h-18.11V224.12h39.08v90.31h17.16ZM1184.32,199.1V174.55H1206V199.1Z"/><path class="cls-2" d="M1334.21,299.18Q1332.54,313,1320.63,323t-32.41,10q-23.12,0-37.41-13.82t-14.3-40q0-24.78,13.34-41t36.94-16.2q21.92,0,34.08,13.58t12.39,32.88a69.34,69.34,0,0,1-1.43,13.58h-73.39q1.43,33.84,31.22,33.84,12.39,0,18.71-6a29.34,29.34,0,0,0,8.46-14.3ZM1311.57,268a31.64,31.64,0,0,0-5.12-20.14q-6.08-9.65-20.14-9.65-13.11,0-19.66,8.7a42.39,42.39,0,0,0-8,21.09Z"/><path class="cls-2" d="M1439.06,299.42q0,16-13.23,24.78T1392.35,333q-24.55,0-41.7-10.48L1354,296.8l16.44,1.67-.48,13.82a36.72,36.72,0,0,0,10.37,3.34,65.78,65.78,0,0,0,11.08,1,43.37,43.37,0,0,0,18.47-3.81q8.22-3.81,8.22-11.92,0-7.86-6.67-11.08a62.21,62.21,0,0,0-16.56-4.89q-9.89-1.66-19.66-4.17a37.89,37.89,0,0,1-16.44-8.58q-6.67-6.08-6.67-18.47,0-17.87,13.22-24.78a60.11,60.11,0,0,1,28.24-6.91,75.26,75.26,0,0,1,20.61,2.74,84.93,84.93,0,0,1,17.51,7l2.38,25.74-16.68,1.91L1415,242.71a48.23,48.23,0,0,0-20.49-4.53q-8.82,0-14.54,3.34t-5.72,11q0,7.39,6.55,10.48a60.5,60.5,0,0,0,16.2,4.65,187.12,187.12,0,0,1,19.3,4.17,37.42,37.42,0,0,1,16.2,8.82Q1439.06,286.8,1439.06,299.42Z"/><path class="cls-2" d="M1458.6,347.8h102.94v14.54H1458.6Z"/><rect class="cls-3" x="59.08" y="149.62" width="36.05" height="45.51"/><rect class="cls-3" x="104.88" y="70.26" width="36.05" height="124.87"/><rect class="cls-3" x="150.68" y="96.56" width="36.05" height="98.57"/><rect class="cls-3" x="196.48" y="45.18" width="36.05" height="149.94"/><rect class="cls-3" x="242.28" y="80.14" width="36.05" height="114.99"/><rect class="cls-3" x="333.89" y="121.95" width="36.05" height="73.17"/><rect class="cls-3" x="288.09" y="132.95" width="36.05" height="62.17"/><polyline class="cls-4" points="311.11 428.33 379.07 205 49.4 205 117.36 428.33"/><rect class="cls-1" x="39.4" y="295.88" width="320.53" height="44.9"/></g></svg>